<?xml version="1.0" standalone="no"?>
<!DOCTYPE svg PUBLIC "-//W3C//DTD SVG 20010904//EN"
 "http://www.w3.org/TR/2001/REC-SVG-20010904/DTD/svg10.dtd">
<svg version="1.0" xmlns="http://www.w3.org/2000/svg"
 width="720.000000pt" height="1280.000000pt" viewBox="0 0 720.000000 1280.000000"
 preserveAspectRatio="xMidYMid meet">

<g transform="translate(0.000000,1280.000000) scale(0.100000,-0.100000)"
fill="#000000" stroke="none">
<path d="M3170 5599 c-44 -18 -90 -71 -105 -123 -9 -30 -15 -91 -15 -153 0
-123 -8 -143 -54 -143 -75 0 -202 -56 -294 -131 -42 -34 -81 -80 -128 -151
-37 -57 -103 -153 -148 -214 -78 -108 -84 -113 -171 -162 -49 -27 -141 -74
-202 -103 -122 -58 -127 -68 -28 -69 33 -1 77 -4 98 -8 l37 -7 -54 -82 c-73
-108 -96 -178 -96 -290 1 -48 6 -115 13 -148 10 -46 11 -105 4 -250 -5 -104
-10 -191 -12 -193 -1 -2 -18 6 -36 17 -80 46 -312 103 -512 127 -31 3 -61 11
-65 18 -16 26 -133 88 -155 82 -37 -9 -92 -74 -176 -209 -85 -137 -99 -177
-88 -267 12 -96 53 -116 92 -45 26 47 110 118 191 161 55 30 62 31 114 22 107
-19 256 -60 360 -100 168 -64 294 -106 358 -119 58 -12 62 -12 96 11 19 14 54
53 77 88 42 65 119 243 140 326 6 25 15 46 18 46 12 0 42 -69 77 -175 l33
-100 -20 -30 c-44 -67 -100 -190 -164 -360 -37 -99 -76 -199 -86 -222 -27 -62
-43 -188 -35 -266 9 -79 -12 -73 206 -55 107 8 164 8 218 0 81 -12 147 0 166
30 19 31 -15 51 -96 59 -69 7 -187 38 -217 58 -12 8 -11 20 4 83 51 210 66
243 224 481 152 229 165 256 157 316 -12 87 -73 243 -179 458 -79 160 -79 130
-5 293 27 59 68 110 116 144 l40 27 62 -21 c54 -18 90 -22 249 -23 126 -2 193
-7 208 -15 19 -11 25 -10 42 7 17 17 40 21 159 27 82 4 141 3 145 -2 3 -5 33
-115 66 -244 34 -129 84 -320 111 -425 28 -104 86 -333 130 -509 72 -285 79
-320 66 -335 -31 -34 -56 -106 -56 -161 0 -186 205 -315 368 -231 49 26 107
87 127 135 25 59 21 149 -8 208 l-24 48 29 0 c17 0 43 -9 58 -20 41 -29 74
-30 78 -2 3 22 6 22 134 22 120 0 130 -1 123 -17 -40 -91 -47 -129 -37 -182
21 -101 87 -177 181 -209 160 -55 345 96 329 268 -10 106 -100 208 -201 230
-26 5 -154 10 -282 10 l-235 0 0 160 0 160 25 0 c14 0 34 -9 45 -20 11 -11 20
-16 20 -12 0 4 -5 13 -12 20 -9 9 0 12 40 12 36 0 52 -4 52 -13 0 -7 16 -27
35 -44 19 -17 35 -27 35 -23 0 5 -13 18 -30 30 -39 27 -40 52 -2 49 15 -1 162
-1 328 -1 l300 2 13 53 c8 28 35 133 61 232 26 99 71 270 100 380 28 110 54
208 57 218 4 16 -12 17 -238 17 l-243 0 30 31 c28 29 28 31 10 44 -11 8 -42
21 -70 29 -28 9 -95 33 -148 55 -87 35 -98 38 -98 22 0 -47 13 -77 40 -93 16
-9 36 -30 45 -47 l16 -31 -148 -1 c-82 0 -156 -2 -165 -4 -26 -5 -31 11 -13
44 19 37 19 47 1 32 -10 -9 -16 -8 -26 4 -23 28 -28 15 -15 -35 l13 -50 -50 2
-49 3 27 22 27 21 -11 83 c-7 45 -14 84 -16 87 -3 2 -18 -5 -34 -17 -35 -25
-52 -27 -52 -6 0 8 -7 15 -15 15 -8 0 -15 7 -15 15 0 8 -7 15 -15 15 -11 0
-15 11 -15 40 0 33 -4 42 -25 52 -13 6 -27 19 -30 28 -8 27 -85 35 -105 11 -8
-10 -23 -21 -32 -24 -10 -4 -18 -16 -18 -27 0 -13 -7 -20 -20 -20 -24 0 -35
-36 -26 -84 7 -36 -12 -63 -38 -53 -8 3 -20 -1 -27 -9 -9 -10 -15 -11 -25 -3
-16 13 -30 6 -37 -20 -7 -30 17 -56 70 -76 120 -45 95 -55 -132 -55 l-193 0
-11 33 c-5 17 -19 70 -31 117 -12 47 -26 100 -32 119 l-11 34 -163 -6 c-156
-5 -164 -5 -164 13 0 34 -38 45 -150 42 -129 -2 -199 15 -247 63 -41 41 -42
66 -3 115 55 69 90 180 90 283 0 78 7 92 68 142 45 38 61 45 82 40 96 -24 104
-21 115 51 3 24 10 46 16 49 5 4 9 15 9 26 0 13 6 19 17 17 24 -4 28 25 9 63
-12 23 -13 36 -5 51 10 18 7 63 -8 111 -4 16 -1 18 16 12 26 -8 28 12 5 58
-26 52 -64 86 -121 107 -58 22 -160 26 -203 9z m1274 -1534 c-4 -8 -8 -15 -10
-15 -2 0 -4 7 -4 15 0 8 4 15 10 15 5 0 7 -7 4 -15z m-263 -137 l2 -23 4 23
c9 46 27 13 59 -109 18 -68 33 -130 34 -136 0 -9 -15 -13 -45 -13 l-45 0 -2
48 -1 47 -6 -50 -6 -50 -92 -3 c-51 -1 -93 0 -93 2 0 3 -13 54 -29 113 -16 60
-32 123 -36 141 l-7 32 131 0 c129 0 131 0 132 -22z m209 -16 c0 -7 7 -20 15
-28 13 -14 15 -11 17 28 1 42 1 42 7 -11 7 -67 28 -81 22 -15 -2 25 2 51 8 57
8 8 11 -7 11 -56 0 -83 15 -88 24 -7 l7 60 44 0 c25 0 45 -5 45 -11 0 -5 4 -7
10 -4 5 3 20 -1 32 -9 31 -22 52 -20 45 3 -4 15 2 20 24 23 16 3 31 2 34 0 3
-3 5 -28 4 -56 0 -28 -3 -45 -6 -38 -7 17 -24 15 -39 -5 -16 -21 -18 -63 -4
-63 6 0 10 4 10 9 0 5 9 7 20 4 17 -5 20 -14 20 -64 0 -59 0 -59 -30 -59 -26
0 -30 4 -31 28 l-2 27 -4 -27 -4 -28 -157 0 -157 0 -33 128 c-18 70 -32 130
-32 135 0 11 22 8 53 -7 25 -14 27 -14 27 7 0 18 2 19 10 7 5 -8 10 -21 10
-28z m916 16 c-3 -13 -18 -70 -32 -128 -15 -58 -30 -108 -33 -111 -3 -4 -102
-9 -219 -13 l-214 -6 6 115 c3 63 10 124 16 135 11 21 -1 20 379 28 103 2 103
2 97 -20z m324 15 c0 -5 -15 -64 -34 -133 l-33 -125 -106 -3 c-98 -2 -106 -1
-101 15 5 17 5 17 -6 1 -6 -10 -17 -18 -24 -18 -10 0 -5 33 20 128 18 70 34
130 34 135 0 4 56 7 125 7 69 0 125 -3 125 -7z m-90 -335 c0 -7 -20 -89 -45
-181 -25 -93 -45 -171 -45 -173 0 -2 -56 -4 -124 -4 l-124 0 44 172 c25 95 48
176 52 180 4 4 48 9 97 11 50 1 102 4 118 5 16 1 27 -3 27 -10z m-352 -11 c-9
-6 -25 -18 -35 -25 -10 -7 2 -3 26 9 41 19 43 20 37 2 -4 -10 -10 -29 -12 -43
-5 -23 -58 -231 -70 -272 -5 -16 -21 -18 -162 -18 l-157 0 -2 50 c0 32 3 50
10 50 8 0 7 3 -1 9 -10 6 -5 12 18 21 17 7 33 17 36 22 4 5 -8 3 -24 -6 -40
-20 -48 -20 -31 1 10 11 10 14 2 9 -8 -4 -13 -1 -13 9 0 23 18 55 54 95 17 19
21 26 9 16 -18 -15 -23 -16 -23 -5 -1 8 -8 2 -16 -13 -8 -16 -17 -28 -19 -28
-3 0 -5 29 -5 64 l0 65 198 0 c158 1 194 -2 180 -12z m-1009 -19 c6 -13 10
-17 10 -10 1 7 5 10 11 7 6 -3 7 1 4 9 -5 13 3 16 44 16 56 0 57 0 67 -49 6
-30 5 -33 -11 -27 -12 4 -8 -2 9 -18 31 -29 37 -62 10 -51 -41 16 -46 15 -12
-4 32 -18 38 -27 57 -103 12 -46 22 -86 22 -90 0 -5 -40 -8 -90 -8 l-90 0 -2
88 -2 87 -3 -88 -4 -88 -51 3 -51 3 -38 145 c-21 80 -40 155 -44 167 -6 24 1
26 103 31 47 3 53 1 61 -20z m491 -103 c0 -78 -4 -125 -10 -125 -6 0 -55 23
-110 50 -129 65 -144 64 -20 -1 52 -27 84 -47 70 -44 -68 14 -71 13 -20 -5 30
-10 63 -19 73 -19 13 -1 17 -10 17 -41 l0 -40 -103 0 -103 0 -17 68 c-9 37
-17 70 -17 74 0 4 19 1 42 -8 22 -8 43 -12 45 -10 2 2 -18 11 -45 20 -33 11
-52 24 -55 36 -3 11 0 20 5 20 6 0 6 6 -2 14 -6 8 -20 42 -30 75 l-18 61 149
0 149 0 0 -125z m70 -10 l0 -135 -24 0 c-30 0 -36 27 -36 166 l0 104 30 0 30
0 0 -135z m0 -180 c0 -31 -3 -35 -25 -35 -22 0 -25 4 -25 35 0 31 3 35 25 35
22 0 25 -4 25 -35z m-559 -152 c1 -17 2 -17 6 -1 4 16 26 17 244 18 l239 0 0
-160 0 -160 -83 0 c-73 0 -86 3 -103 21 -10 12 -50 36 -89 54 -38 17 -90 48
-113 68 -32 27 -53 37 -78 37 -30 0 -34 3 -35 28 -2 27 -2 27 -7 2 -4 -21 -7
-17 -18 25 -19 74 -18 85 11 85 17 0 25 -6 26 -17z m103 -180 c24 -21 71 -48
104 -61 33 -12 68 -32 77 -42 18 -20 17 -20 -123 -20 l-140 0 -11 48 c-6 26
-15 64 -20 86 l-9 38 39 -5 c26 -3 53 -18 83 -44z m79 -237 c18 -7 46 -28 62
-45 27 -30 30 -38 30 -102 0 -70 0 -71 -41 -109 -49 -46 -100 -59 -153 -40
-143 50 -150 235 -13 297 37 16 77 16 115 -1z m302 3 c4 -6 5 -13 1 -16 -8 -8
-56 6 -56 17 0 13 47 13 55 -1z m555 -11 c48 -25 90 -89 90 -138 0 -14 -10
-46 -22 -70 -60 -118 -227 -113 -280 8 -35 78 -3 163 75 201 54 27 82 26 137
-1z"/>
<path d="M4193 3835 c0 -33 2 -45 4 -27 2 18 2 45 0 60 -2 15 -4 0 -4 -33z"/>
<path d="M4959 3581 c9 -6 11 -16 7 -27 -6 -15 -4 -16 5 -7 14 14 5 43 -13 43
-10 0 -9 -3 1 -9z"/>
<path d="M5058 3519 c-38 -22 -68 -43 -68 -46 0 -3 10 1 23 9 12 8 43 27 70
42 40 24 56 36 45 36 -2 0 -33 -18 -70 -41z"/>
<path d="M5144 3524 c-18 -14 -18 -15 4 -4 12 6 22 13 22 15 0 8 -5 6 -26 -11z"/>
<path d="M4895 3468 l-60 -63 63 60 c58 55 67 65 59 65 -1 0 -29 -28 -62 -62z"/>
<path d="M5088 3494 c-38 -20 -36 -28 2 -9 17 9 30 18 30 20 0 7 -1 6 -32 -11z"/>
<path d="M4937 3446 c-48 -29 -61 -43 -22 -23 31 16 74 46 65 46 -3 0 -22 -10
-43 -23z"/>
<path d="M5030 3460 c-9 -6 -10 -10 -3 -10 6 0 15 5 18 10 8 12 4 12 -15 0z"/>
<path d="M4970 3430 c-19 -11 -31 -19 -27 -20 11 0 67 29 67 35 0 7 -1 7 -40
-15z"/>
<path d="M4890 3390 c-19 -11 -31 -19 -27 -20 11 0 67 29 67 35 0 7 -1 7 -40
-15z"/>
<path d="M4240 3556 c0 -3 9 -10 20 -16 11 -6 20 -8 20 -6 0 3 -9 10 -20 16
-11 6 -20 8 -20 6z"/>
<path d="M4177 3523 c6 -4 13 -26 16 -48 4 -40 4 -40 3 4 -1 30 -6 46 -16 48
-10 3 -11 2 -3 -4z"/>
<path d="M4210 3506 c0 -3 9 -10 20 -16 11 -6 20 -8 20 -6 0 3 -9 10 -20 16
-11 6 -20 8 -20 6z"/>
<path d="M4172 3090 c0 -14 2 -19 5 -12 2 6 2 18 0 25 -3 6 -5 1 -5 -13z"/>
<path d="M4858 4488 c-14 -30 -40 -71 -58 -91 -18 -21 -30 -40 -27 -43 8 -9
76 80 98 130 11 26 19 50 16 52 -3 3 -16 -19 -29 -48z"/>
<path d="M4907 4415 c-28 -57 -60 -109 -97 -157 -12 -16 -17 -28 -12 -28 22 0
154 221 140 235 -2 3 -16 -20 -31 -50z"/>
<path d="M4935 4289 c-11 -24 -42 -72 -68 -106 -26 -35 -43 -63 -38 -63 22 0
136 180 129 202 -2 6 -13 -9 -23 -33z"/>
<path d="M4938 4183 l-25 -38 23 -18 c12 -9 28 -17 33 -17 6 0 11 -5 11 -12 0
-8 3 -9 11 -1 12 12 2 58 -17 74 -11 9 -14 8 -14 -5 0 -9 -7 -16 -16 -16 -13
0 -12 5 6 31 12 16 20 32 18 35 -3 2 -16 -13 -30 -33z"/>
<path d="M4749 3033 c-5 -15 -9 -36 -7 -47 2 -11 8 1 14 27 12 52 9 61 -7 20z"/>
<path d="M1242 1554 c-48 -33 -52 -58 -52 -294 0 -245 6 -277 59 -304 63 -33
136 -12 165 48 13 28 16 71 16 250 0 233 -6 268 -51 300 -30 20 -108 21 -137
0z m92 -90 c8 -20 8 -398 0 -418 -3 -9 -14 -16 -24 -16 -10 0 -21 7 -24 16 -8
20 -8 398 0 418 3 9 14 16 24 16 10 0 21 -7 24 -16z"/>
<path d="M1510 1260 l0 -310 40 0 40 0 2 173 3 172 17 -55 c9 -30 31 -108 48
-172 l32 -118 44 0 44 0 -2 308 -3 307 -42 3 -43 3 -2 -173 -3 -173 -38 140
c-61 223 -53 205 -98 205 l-39 0 0 -310z"/>
<path d="M2010 1261 l0 -311 70 0 c93 0 136 18 158 67 14 32 17 71 17 243 0
189 -2 208 -21 240 -27 47 -64 63 -151 68 l-73 4 0 -311z m142 187 c9 -16 13
-74 13 -193 0 -180 -8 -215 -45 -215 -19 0 -20 8 -20 215 0 207 1 215 20 215
10 0 25 -10 32 -22z"/>
<path d="M2340 1260 l0 -310 105 0 105 0 0 45 0 45 -60 0 -60 0 0 85 0 85 40
0 40 0 0 50 0 50 -40 0 -40 0 0 80 0 80 60 0 60 0 0 50 0 50 -105 0 -105 0 0
-310z"/>
<path d="M2610 1260 l0 -310 45 0 45 0 1 203 c1 111 4 191 6 177 7 -43 42
-282 49 -332 5 -41 10 -48 28 -48 20 0 23 10 45 163 36 248 39 251 40 35 l1
-198 45 0 45 0 -2 308 -3 307 -56 3 -56 3 -29 -153 -30 -153 -29 153 -29 152
-58 0 -58 0 0 -310z"/>
<path d="M3106 1543 c-3 -16 -22 -134 -41 -263 -19 -129 -39 -256 -44 -282
l-8 -48 48 0 c47 0 49 1 49 29 0 16 3 43 6 60 6 29 9 31 49 31 l43 0 7 -60 7
-60 44 0 c50 0 52 6 35 97 -5 26 -24 145 -41 263 -17 118 -33 225 -36 238 -4
19 -10 22 -58 22 -51 0 -55 -2 -60 -27z m83 -340 c1 -29 -2 -33 -25 -33 l-27
0 7 68 c4 37 10 85 13 107 7 39 7 38 19 -35 7 -41 13 -90 13 -107z"/>
<path d="M3370 1261 l0 -311 45 0 45 0 2 166 3 166 44 -166 45 -166 43 0 43 0
0 310 0 310 -45 0 -45 0 -2 -167 -3 -168 -45 165 -45 165 -42 3 -43 3 0 -310z"/>
<path d="M3720 1261 l0 -311 79 0 c64 0 84 4 111 22 54 37 62 77 63 288 1 164
-2 190 -19 225 -30 61 -61 78 -154 83 l-80 5 0 -312z m153 169 c5 -19 7 -107
5 -196 -3 -168 -10 -194 -49 -194 -18 0 -19 11 -19 216 l0 215 27 -3 c21 -2
29 -10 36 -38z"/>
<path d="M4238 1545 c-40 -40 -48 -87 -48 -297 0 -247 12 -290 88 -304 26 -5
45 -2 66 10 20 11 32 14 34 7 2 -6 17 -11 33 -11 l30 0 -3 153 -3 152 -62 3
-63 3 0 -41 c0 -33 3 -40 20 -40 18 0 20 -7 20 -63 0 -70 -15 -102 -43 -91
-16 6 -17 25 -15 228 3 217 3 221 24 224 25 4 34 -19 34 -91 l0 -48 43 3 42 3
3 47 c4 64 -14 125 -45 154 -37 35 -120 34 -155 -1z"/>
<path d="M4520 1261 l0 -311 45 0 44 0 3 127 c2 86 7 128 15 130 7 3 14 -14
18 -44 4 -26 11 -64 15 -83 4 -19 11 -56 15 -82 l6 -48 45 0 c53 0 52 -7 19
163 l-25 127 23 37 c17 30 22 53 22 113 -1 131 -38 171 -166 178 l-79 5 0
-312z m148 179 c19 -37 9 -110 -18 -132 -12 -10 -26 -15 -31 -12 -5 3 -9 43
-9 90 0 83 1 85 22 82 12 -2 28 -14 36 -28z"/>
<path d="M4892 1554 c-48 -33 -52 -58 -52 -294 0 -185 3 -228 16 -256 41 -85
167 -85 208 0 13 28 16 71 16 250 0 233 -6 268 -51 300 -30 20 -108 21 -137 0z
m96 -279 c1 -110 0 -210 -3 -222 -6 -27 -40 -31 -49 -7 -8 22 -8 419 1 428 4
4 16 6 28 4 19 -3 20 -10 23 -203z"/>
<path d="M5203 1552 c-46 -35 -53 -76 -53 -297 0 -225 6 -254 56 -294 38 -30
113 -25 148 8 27 25 46 89 46 150 l0 41 -45 0 -45 0 0 -52 c0 -61 -10 -81 -36
-76 -18 3 -19 16 -19 223 l0 220 25 0 c24 0 25 -3 28 -63 l3 -63 42 3 c49 3
53 12 42 95 -5 40 -15 63 -37 89 -27 31 -35 34 -82 34 -33 0 -59 -7 -73 -18z"/>
<path d="M5470 1260 l0 -310 105 0 105 0 0 45 0 45 -60 0 -60 0 0 85 0 85 45
0 45 0 0 50 0 50 -45 0 -45 0 0 80 0 80 60 0 60 0 0 50 0 50 -105 0 -105 0 0
-310z"/>
<path d="M5740 1261 l0 -311 50 0 50 0 0 130 c0 72 4 130 9 130 11 0 15 -18
37 -152 l17 -108 47 0 c46 0 47 1 42 28 -2 15 -15 80 -28 146 l-23 119 22 29
c18 25 22 43 22 111 0 139 -37 180 -166 186 l-79 3 0 -311z m148 184 c25 -54
11 -124 -28 -145 -19 -10 -20 -7 -20 80 0 81 2 90 18 90 11 0 24 -11 30 -25z"/>
<path d="M6040 1562 c0 -8 17 -76 66 -259 19 -76 24 -117 24 -223 l0 -130 45
0 45 0 0 125 c0 115 3 138 42 283 60 227 59 212 6 212 l-45 0 -18 -87 c-10
-49 -21 -94 -24 -101 -4 -7 -18 33 -30 88 l-24 100 -43 0 c-24 0 -44 -4 -44
-8z"/>
</g>
</svg>
